<svg xmlns="http://www.w3.org/2000/svg" viewBox="0 0 24 24">
  <path class="icon" d="M2,3C2,2.44772 2.44772,2 3,2H9.5C10.6046,2 11.5,2.89543 11.5,4V21C11.5,21.5523 11.0523,22 10.5,22H3C2.44772,22 2,21.5523 2,21V3ZM12.5,4C12.5,2.89543 13.3954,2 14.5,2H21C21.5523,2 22,2.44772 22,3V21C22,21.5523 21.5523,22 21,22H13.5C12.9477,22 12.5,21.5523 12.5,21V4ZM13.5,20H20V4H14.5C13.6716,4 13,4.67157 13,5.5V20.25 C13.1611,20.0886 13.3444,20 13.5,20ZM10.5,20C10.6556,20 10.8389,20.0886 11,20.25V5.5C11,4.67157 10.3284,4 9.5,4H4V20H10.5Z"/>
</svg>
